<svg width="12" height="16" viewBox="0 0 12 16" fill="none" xmlns="http://www.w3.org/2000/svg">
<path d="M6.78991 9.43976V6.55978C6.78991 6.11799 6.43655 5.75977 6.00042 5.75977C5.56445 5.75977 5.21094 6.11783 5.21094 6.55978V9.43976C5.21094 9.88155 5.56429 10.2398 6.00042 10.2398C6.43639 10.2398 6.78991 9.88155 6.78991 9.43976Z" fill="#262626"/>
<path d="M11.2105 7.36011C11.6465 7.36011 12 7.00204 12 6.56009V6.08004C12 2.72758 9.30844 0 6 0C2.69156 0 0 2.72746 0 6.08004V9.91996C0 13.2724 2.69156 16 6 16C9.30844 16 12 13.2725 12 9.91996V9.43991C12 8.99812 11.6466 8.63989 11.2105 8.63989C10.7745 8.64005 10.4212 8.99828 10.4212 9.44007V9.92012C10.4212 12.3904 8.43792 14.4001 6.00016 14.4001C3.5624 14.4001 1.57913 12.3904 1.57913 9.92012V6.08004C1.57913 3.60972 3.5624 1.60003 6.00016 1.60003C8.43792 1.60003 10.4212 3.60976 10.4212 6.08004V6.56009C10.4212 7.00188 10.7745 7.36011 11.2105 7.36011Z" fill="#262626"/>
<path d="M3.39495 8.63984C2.95898 8.63984 2.60547 8.9979 2.60547 9.43985V9.6798C2.60563 11.5767 4.12833 13.1198 6.00023 13.1198C7.87213 13.1198 9.39483 11.5767 9.39483 9.67996V6.31993C9.39483 4.42306 7.87213 2.87988 6.00023 2.87988C4.12833 2.87988 2.60563 4.42306 2.60563 6.31977V6.55971C2.60563 7.0015 2.95898 7.35973 3.39512 7.35973C3.83109 7.35973 4.1846 7.00166 4.1846 6.55971V6.31977C4.1846 5.30503 4.99901 4.47975 6.00039 4.47975C7.00177 4.47975 7.81619 5.30503 7.81619 6.31977V9.6798C7.81619 10.6945 7.00177 11.5198 6.00039 11.5198C4.99901 11.5198 4.1846 10.6945 4.1846 9.6798L4.18444 9.43985C4.18444 8.99806 3.83109 8.63984 3.39496 8.63984H3.39495Z" fill="#262626"/>
</svg>
