<svg width="14" height="14" viewBox="0 0 14 14" fill="none" xmlns="http://www.w3.org/2000/svg">
<path d="M2.6775 1.08105L2.06494 1.68649C0.734969 3.00088 0 4.73053 0 6.58141C0 8.43229 0.735 10.1618 2.0475 11.4763C3.4125 12.8255 5.215 13.5 7 13.5C8.785 13.5 10.5875 12.8255 11.9525 11.4763C13.265 10.1618 14 8.43217 14 6.58141C14 4.73065 13.265 3.00103 11.9525 1.68649L11.3399 1.08105L10.0974 2.30917L10.7099 2.91461C11.7075 3.90045 12.25 5.19769 12.25 6.58147C12.25 7.96526 11.7075 9.26246 10.7099 10.2483C8.66244 12.272 5.33744 12.272 3.28994 10.2483C2.2925 9.27976 1.75003 7.96526 1.75003 6.58147C1.75003 5.19769 2.2925 3.90048 3.29006 2.91461L3.90263 2.30917L2.6775 1.08105Z" fill="#262626"/>
<path d="M7.875 6.91861V0H6.125V6.91861H7.875Z" fill="#262626"/>
</svg>
